<svg width="500" height="400" viewBox="0 0 500 400" fill="none" xmlns="http://www.w3.org/2000/svg">
  <rect width="500" height="400" fill="#F8F9FA"/>
  <rect x="50" y="50" width="400" height="300" rx="10" fill="#E9ECEF"/>
  
  <!-- Chart Elements -->
  <rect x="100" y="120" width="40" height="180" rx="5" fill="#4A6CF7"/>
  <rect x="170" y="150" width="40" height="150" rx="5" fill="#4A6CF7" opacity="0.8"/>
  <rect x="240" y="200" width="40" height="100" rx="5" fill="#4A6CF7" opacity="0.6"/>
  <rect x="310" y="80" width="40" height="220" rx="5" fill="#4A6CF7" opacity="0.9"/>
  
  <!-- X-axis -->
  <line x1="80" y1="320" x2="370" y2="320" stroke="#6C757D" stroke-width="2"/>
  
  <!-- Y-axis -->
  <line x1="80" y1="80" x2="80" y2="320" stroke="#6C757D" stroke-width="2"/>
  
  <!-- Title -->
  <rect x="100" y="30" width="300" height="30" rx="5" fill="#4A6CF7"/>
  
  <!-- Legend -->
  <rect x="80" y="350" width="15" height="15" rx="3" fill="#4A6CF7"/>
  <rect x="200" y="350" width="15" height="15" rx="3" fill="#4A6CF7" opacity="0.8"/>
  <rect x="320" y="350" width="15" height="15" rx="3" fill="#4A6CF7" opacity="0.6"/>
  
  <!-- Decorative elements -->
  <circle cx="420" cy="70" r="20" fill="#4A6CF7" opacity="0.2"/>
  <circle cx="60" cy="250" r="15" fill="#4A6CF7" opacity="0.3"/>
</svg> 